<svg width="60" height="60" viewBox="0 0 60 60" fill="none" xmlns="http://www.w3.org/2000/svg">
<rect width="60" height="60" rx="30" fill="#004346"/>
<path d="M33.9998 35.3333H37.9998C38.3776 35.3333 38.6945 35.2053 38.9505 34.9493C39.2065 34.6933 39.3341 34.3769 39.3332 34V26C39.3332 25.6222 39.2052 25.3053 38.9492 25.0493C38.6932 24.7933 38.3767 24.6658 37.9998 24.6667H33.9998C33.6221 24.6667 33.3052 24.7947 33.0492 25.0507C32.7932 25.3067 32.6656 25.6231 32.6665 26V34C32.6665 34.3778 32.7945 34.6947 33.0505 34.9507C33.3065 35.2067 33.6229 35.3342 33.9998 35.3333ZM35.3332 32.6667V27.3333H36.6665V32.6667H35.3332ZM25.9998 35.3333H29.9998C30.3776 35.3333 30.6945 35.2053 30.9505 34.9493C31.2065 34.6933 31.3341 34.3769 31.3332 34V26C31.3332 25.6222 31.2052 25.3053 30.9492 25.0493C30.6932 24.7933 30.3767 24.6658 29.9998 24.6667H25.9998C25.6221 24.6667 25.3052 24.7947 25.0492 25.0507C24.7932 25.3067 24.6656 25.6231 24.6665 26V34C24.6665 34.3778 24.7945 34.6947 25.0505 34.9507C25.3065 35.2067 25.6229 35.3342 25.9998 35.3333ZM27.3332 32.6667V27.3333H28.6665V32.6667H27.3332ZM20.6665 35.3333H23.3332V24.6667H20.6665V35.3333ZM16.6665 40.6667V19.3333H43.3332V40.6667H16.6665Z" fill="white"/>
</svg>
