<svg width="32" height="32" viewBox="0 0 32 32" fill="none" xmlns="http://www.w3.org/2000/svg">
<path d="M17.4998 1.5V4H19.4698C20.0778 4 20.6758 4.16 21.2038 4.462L23.7838 5.934C23.8598 5.978 23.9438 6 24.0318 6H28.4998C28.8976 6 29.2792 6.15804 29.5605 6.43934C29.8418 6.72064 29.9998 7.10218 29.9998 7.5C29.9998 7.89782 29.8418 8.27936 29.5605 8.56066C29.2792 8.84196 28.8976 9 28.4998 9H27.6458L31.8678 18.384C31.9926 18.6616 32.0299 18.9706 31.9749 19.27C31.9199 19.5693 31.7751 19.8449 31.5598 20.06L30.4998 19L31.5578 20.062L31.5558 20.066L31.5518 20.07L31.5398 20.082L31.5278 20.092L31.5078 20.112L31.4178 20.192C30.9978 20.544 30.5358 20.846 30.0458 21.092C29.1118 21.56 27.7598 22 25.9998 22C24.5988 22.0165 23.2134 21.7056 21.9538 21.092C21.4632 20.8461 21.0028 20.5441 20.5818 20.192L20.4918 20.112L20.4598 20.082L20.4478 20.07L20.4398 20.062V20.06C20.2245 19.8449 20.0797 19.5693 20.0247 19.27C19.9697 18.9706 20.0071 18.6616 20.1318 18.384L24.3558 9H24.0318C23.4218 9 22.8238 8.842 22.2958 8.538L19.7158 7.066C19.6405 7.02236 19.5549 6.99958 19.4678 7H17.4998V26H22.4998C22.8976 26 23.2792 26.158 23.5605 26.4393C23.8418 26.7206 23.9998 27.1022 23.9998 27.5C23.9998 27.8978 23.8418 28.2794 23.5605 28.5607C23.2792 28.842 22.8976 29 22.4998 29H9.49981C9.10199 29 8.72046 28.842 8.43915 28.5607C8.15785 28.2794 7.99981 27.8978 7.99981 27.5C7.99981 27.1022 8.15785 26.7206 8.43915 26.4393C8.72046 26.158 9.10199 26 9.49981 26H14.4998V7H12.5318C12.4448 6.99958 12.3592 7.02236 12.2838 7.066L9.70581 8.54C9.17581 8.84 8.57781 9 7.96781 9H7.64381L11.8678 18.384C11.9926 18.6616 12.0299 18.9706 11.9749 19.27C11.9199 19.5693 11.7751 19.8449 11.5598 20.06L10.4998 19L11.5578 20.062L11.5558 20.066L11.5518 20.07L11.5398 20.082L11.5078 20.112L11.4178 20.192C10.9978 20.544 10.5358 20.846 10.0458 21.092C9.11181 21.56 7.75981 22 5.99981 22C4.59884 22.0165 3.21337 21.7056 1.95381 21.092C1.46318 20.8461 1.00276 20.5441 0.581813 20.192L0.491813 20.112L0.459813 20.082L0.447813 20.07L0.439813 20.062V20.06C0.224497 19.8449 0.0797185 19.5693 0.0247058 19.27C-0.0303069 18.9706 0.00704929 18.6616 0.131813 18.384L4.35581 9H3.49981C3.10199 9 2.72046 8.84196 2.43915 8.56066C2.15785 8.27936 1.99981 7.89782 1.99981 7.5C1.99981 7.10218 2.15785 6.72064 2.43915 6.43934C2.72046 6.15804 3.10199 6 3.49981 6H7.96781C8.0555 6.00039 8.14175 5.97763 8.21781 5.934L10.7938 4.46C11.3238 4.16 11.9218 4 12.5318 4H14.4998V1.5C14.4998 1.10218 14.6578 0.720644 14.9392 0.43934C15.2205 0.158035 15.602 0 15.9998 0C16.3976 0 16.7792 0.158035 17.0605 0.43934C17.3418 0.720644 17.4998 1.10218 17.4998 1.5ZM23.3898 18.454C23.9598 18.724 24.8258 19 25.9998 19C27.1738 19 28.0398 18.724 28.6098 18.454L25.9998 12.654L23.3898 18.454ZM3.38981 18.454C3.95981 18.724 4.82581 19 5.99981 19C7.17381 19 8.03981 18.724 8.60981 18.454L5.99981 12.654L3.38981 18.454Z" fill="white"/>
</svg>
