<svg width="90" height="111" viewBox="0 0 90 111" fill="none" xmlns="http://www.w3.org/2000/svg">
<path d="M39.0938 59.6069L31.3594 51.8193C30.2344 50.7068 28.8994 50.1505 27.3544 50.1505C25.8056 50.1505 24.4687 50.7068 23.3437 51.8193C22.2187 52.9318 21.6337 54.252 21.5887 55.7798C21.54 57.3114 22.0781 58.6335 23.2031 59.746L35.1562 71.5665C36.2812 72.679 37.5938 73.2352 39.0938 73.2352C40.5938 73.2352 41.9062 72.679 43.0312 71.5665L66.9375 47.9255C68.0625 46.813 68.625 45.4909 68.625 43.9594C68.625 42.4315 68.0625 41.1113 66.9375 39.9988C65.8125 38.8863 64.4775 38.33 62.9325 38.33C61.3837 38.33 60.0469 38.8863 58.9219 39.9988L39.0938 59.6069ZM45 110.922H43.5938C43.125 110.922 42.7031 110.829 42.3281 110.644C30.0469 106.842 19.9219 99.3089 11.9531 88.0428C3.98438 76.7804 0 64.3351 0 50.7068V24.4236C0 22.1058 0.680625 20.0199 2.04187 18.1657C3.39937 16.3115 5.15625 14.9672 7.3125 14.1328L41.0625 1.61701C42.375 1.15347 43.6875 0.921692 45 0.921692C46.3125 0.921692 47.625 1.15347 48.9375 1.61701L82.6875 14.1328C84.8438 14.9672 86.6025 16.3115 87.9638 18.1657C89.3213 20.0199 90 22.1058 90 24.4236V50.7068C90 64.3351 86.0156 76.7804 78.0469 88.0428C70.0781 99.3089 59.9531 106.842 47.6719 110.644C47.2031 110.829 46.3125 110.922 45 110.922Z" fill="#16A34A"/>
</svg>
