<svg width="13" height="15" viewBox="0 0 13 15" fill="none" xmlns="http://www.w3.org/2000/svg">
<path d="M5.00164 14.8411C5.09131 14.9113 5.19583 14.9601 5.30722 14.9838C5.41861 15.0074 5.53393 15.0053 5.64439 14.9776L11.6444 13.4776C11.8068 13.4373 11.951 13.3437 12.054 13.2119C12.157 13.08 12.213 12.9175 12.2129 12.7501V2.25015C12.2128 2.08285 12.1569 1.92037 12.0539 1.78855C11.9508 1.65673 11.8067 1.56313 11.6444 1.52265L5.64439 0.0226465C5.53389 -0.0044666 5.41867 -0.00615967 5.30742 0.0176946C5.19617 0.0415488 5.09178 0.0903289 5.00211 0.160363C4.91244 0.230397 4.83982 0.31986 4.78972 0.422018C4.73963 0.524176 4.71336 0.636367 4.71289 0.750147V1.50015H1.71289C1.51398 1.50015 1.32321 1.57916 1.18256 1.71982C1.04191 1.86047 0.962891 2.05123 0.962891 2.25015V12.7501C0.962891 12.9491 1.04191 13.1398 1.18256 13.2805C1.32321 13.4211 1.51398 13.5001 1.71289 13.5001H4.71289V14.2501C4.71289 14.4811 4.81939 14.6994 5.00164 14.8411ZM6.21289 1.7109L10.7129 2.8359V12.1644L6.21289 13.2894V1.7109ZM2.46289 12.0001V3.00015H4.71289V12.0001H2.46289Z" fill="#F54C41"/>
</svg>
