<svg width="43" height="36" viewBox="0 0 43 36" fill="none" xmlns="http://www.w3.org/2000/svg">
<path d="M2.94998 36C2.58332 36 2.24998 35.908 1.94998 35.724C1.64998 35.54 1.41665 35.2987 1.24998 35C1.08332 34.7 0.991318 34.3747 0.973985 34.024C0.956651 33.6733 1.04865 33.332 1.24998 33L19.75 1C19.95 0.666667 20.2087 0.416667 20.526 0.25C20.8433 0.0833333 21.168 0 21.5 0C21.8333 0 22.1587 0.0833333 22.476 0.25C22.7933 0.416667 23.0513 0.666667 23.25 1L41.75 33C41.95 33.3333 42.042 33.6753 42.026 34.026C42.01 34.3767 41.918 34.7013 41.75 35C41.5833 35.3 41.35 35.542 41.05 35.726C40.75 35.91 40.4166 36.0013 40.05 36H2.94998ZM21.5 30C22.0667 30 22.542 29.808 22.926 29.424C23.31 29.04 23.5013 28.5653 23.5 28C23.5 27.4333 23.308 26.958 22.924 26.574C22.54 26.19 22.0653 25.9987 21.5 26C20.9333 26 20.458 26.192 20.074 26.576C19.69 26.96 19.4987 27.4347 19.5 28C19.5 28.5667 19.692 29.042 20.076 29.426C20.46 29.81 20.9347 30.0013 21.5 30ZM21.5 24C22.0667 24 22.542 23.808 22.926 23.424C23.31 23.04 23.5013 22.5653 23.5 22V16C23.5 15.4333 23.308 14.958 22.924 14.574C22.54 14.19 22.0653 13.9987 21.5 14C20.9333 14 20.458 14.192 20.074 14.576C19.69 14.96 19.4987 15.4347 19.5 16V22C19.5 22.5667 19.692 23.042 20.076 23.426C20.46 23.81 20.9347 24.0013 21.5 24Z" fill="#FACC15"/>
</svg>
